<?xml version="1.0" encoding="utf-8"?>
<!-- Generator: Adobe Illustrator 24.3.0, SVG Export Plug-In . SVG Version: 6.00 Build 0)  -->
<svg version="1.1" id="Layer_1" xmlns="http://www.w3.org/2000/svg" xmlns:xlink="http://www.w3.org/1999/xlink" x="0px" y="0px"
	 viewBox="0 0 432 72" style="enable-background:new 0 0 432 72;" xml:space="preserve">
<style type="text/css">
	.st0{enable-background:new    ;}
	.st1{fill:#383838;}
</style>
<g class="st0">
	<path class="st1" d="M14.9,31.4l-4.2-16.5v-1.7H11l3.9,15.4V31.4z M14.9,37.8l-4.2-16.5v-2.9l4.2,16.5V37.8z M14.9,44.2l-4.2-16.5
		v-2.9l4.2,16.5V44.2z M14.9,50.6l-4.2-16.5v-2.9l4.2,16.5V50.6z M10.7,37.6l4.2,16.5V57l-4.2-16.5V37.6z M10.7,44l4.6,18h-0.7
		l-3.9-15.1V44z M10.7,50.4L13.6,62h-0.7l-2.2-8.7V50.4z M10.7,56.8L12,62h-0.8l-0.6-2.3V56.8z M14.9,25l-3-11.9h0.7l2.3,9V25z
		 M14.9,18.6l-1.4-5.5h0.8l0.6,2.6V18.6z M16.9,62h-0.8l-0.7-2.7h0.8L16.9,62z M16.3,57.9V9h20.4c6.7,0,12.5,2.4,17.3,7.1
		c4.8,4.8,7.2,10.6,7.2,17.3c0,6.7-2.4,12.5-7.2,17.3s-10.5,7.2-17.3,7.2H16.3z M17.8,62l-0.7-2.7h0.7l0.7,2.7H17.8z M18.7,59.3h0.8
		l0.7,2.7h-0.7L18.7,59.3z M21.1,59.3l0.7,2.7H21l-0.7-2.7H21.1z M22.7,59.3l0.7,2.7h-0.7L22,59.3H22.7z M24.4,59.3L25,62h-0.7
		l-0.7-2.7H24.4z M26.7,62h-0.8l-0.7-2.7H26L26.7,62z M27.6,62l-0.7-2.7h0.7l0.7,2.7H27.6z M29.2,62l-0.7-2.7h0.8l0.7,2.7H29.2z
		 M29.8,44.3h6.8c3,0,5.5-1.1,7.7-3.2c2.1-2.1,3.2-4.7,3.2-7.7c0-3-1.1-5.6-3.2-7.7c-2.1-2.1-4.7-3.2-7.7-3.2h-6.8V44.3z M30.8,62
		l-0.7-2.7h0.8l0.7,2.7c-0.2,0-0.4,0-0.5,0H30.8z M31.7,24l0.7,2.8c-0.3,0-0.5-0.1-0.8-0.1L31.2,25v-1H31.7z M33.2,61.9
		c-0.3,0-0.5,0-0.7,0.1l-0.7-2.7h0.7L33.2,61.9z M33.3,24l0.8,3.1c-0.3-0.1-0.5-0.2-0.8-0.2L32.6,24H33.3z M34.7,61.7
		c-0.2,0-0.4,0.1-0.7,0.1l-0.6-2.5h0.8L34.7,61.7z M34.9,24l1,3.9c-0.3-0.1-0.5-0.3-0.8-0.4L34.2,24H34.9z M36.3,61.4
		c-0.3,0.1-0.5,0.1-0.7,0.1L35,59.3h0.8L36.3,61.4z M37.9,29.1c-0.3-0.2-0.6-0.4-0.9-0.6L35.8,24h0.8L37.9,29.1z M37.8,61
		c-0.3,0.1-0.5,0.1-0.7,0.2l-0.5-1.9c0.2,0,0.5,0,0.7,0L37.8,61z M40.1,31.6c-0.3-0.5-0.7-1-1.1-1.4L37.4,24c0.3,0,0.5,0.1,0.8,0.1
		L40.1,31.6z M39.3,60.5c-0.2,0.1-0.4,0.1-0.6,0.2l-0.4-1.5c0.3,0,0.5,0,0.7-0.1L39.3,60.5z M43.8,39.7c-0.2,0.2-0.4,0.4-0.6,0.6
		l-4.1-16c0.3,0.1,0.5,0.2,0.8,0.3L43.8,39.7z M40.8,59.9c-0.2,0.1-0.5,0.2-0.7,0.3l-0.3-1.2c0.2,0,0.5-0.1,0.7-0.1L40.8,59.9z
		 M45,38c-0.2,0.3-0.3,0.6-0.5,0.9L41,25c0.3,0.2,0.6,0.3,0.9,0.5L45,38z M41,41.9c0.1-0.2,0.1-0.2,0.1-0.1l0,0.1
		C41.2,41.8,41.1,41.8,41,41.9z M42.3,59.2c-0.2,0.1-0.4,0.2-0.6,0.3l-0.2-0.8c0.2,0,0.5-0.1,0.7-0.1L42.3,59.2z M41.6,40.2
		c0.1-0.6,0.2-1.2,0.3-1.7l0.6,2.5c-0.2,0.2-0.4,0.3-0.6,0.4L41.6,40.2z M46,35.3c-0.1,0.5-0.2,0.9-0.4,1.4l-2.6-10.3
		c0.4,0.3,0.7,0.7,1,1L46,35.3z M43.7,58.5c-0.2,0.1-0.4,0.2-0.6,0.4L43,58.5c0.2,0,0.5-0.1,0.7-0.2L43.7,58.5z M45.6,30.3
		c0.2,0.6,0.4,1.2,0.4,1.7L45.6,30.3z M47.4,34.6c-0.1,0.6-0.2,1.1-0.3,1.7C47.2,35.8,47.4,35.2,47.4,34.6z"/>
	<path class="st1" d="M65.2,14.4L69.4,31v2.9l-4.2-16.5V14.4z M65.2,20.9l4.2,16.5v2.9l-4.2-16.5V20.9z M65.2,27.3l4.2,16.5v2.9
		l-4.2-16.5V27.3z M65.2,33.6l4.2,16.5v2.9l-4.2-16.5V33.6z M65.2,40.1l4.2,16.5v2.7h0.7l0.7,2.7H70l-4.9-19V40.1z M65.2,46.5
		l4,15.5h-0.8l-3.2-12.6V46.5z M65.2,52.9l2.3,9.1h-0.8l-1.6-6.2V52.9z M65.2,59.2l0.7,2.7h-0.7V59.2z M66.5,13.1l2.9,11.5v2.9
		l-3.7-14.4H66.5z M68.1,13.1l1.3,5.1v2.9l-2-8H68.1z M69.4,14.7L69,13.1h0.4V14.7z M112.8,9v13.6H84.3V28h19.5v10.9H84.3v5.4h28.5
		v13.6H70.7V9H112.8z M71.7,59.3l0.7,2.7h-0.8l-0.7-2.7H71.7z M73.3,59.3L74,62h-0.8l-0.7-2.7H73.3z M74.9,59.3l0.7,2.7h-0.7
		l-0.7-2.7H74.9z M76.6,59.3l0.7,2.7h-0.8l-0.7-2.7H76.6z M78.2,59.3l0.7,2.7h-0.8l-0.7-2.7H78.2z M79.8,59.3l0.7,2.7h-0.7l-0.7-2.7
		H79.8z M81.5,59.3l0.7,2.7h-0.8l-0.7-2.7H81.5z M83.1,59.3l0.7,2.7H83l-0.7-2.7H83.1z M84.7,59.3l0.7,2.7h-0.7L84,59.3H84.7z
		 M86.4,59.3L87,62h-0.8l-0.7-2.7H86.4z M85.7,26.7v-2.1l0.5,2.1H85.7z M85.7,40.2h0.7l0.7,2.7h-0.7L85.7,40.2L85.7,40.2z M86.4,24
		h0.8l0.7,2.7h-0.7L86.4,24z M88,59.3l0.7,2.7h-0.8l-0.7-2.7H88z M87.3,40.2H88l0.7,2.7H88L87.3,40.2z M88,24h0.8l0.7,2.7h-0.8
		L88,24z M89.6,59.3l0.7,2.7h-0.7l-0.7-2.7H89.6z M88.9,40.2h0.8l0.7,2.7h-0.8L88.9,40.2z M89.7,24h0.7l0.7,2.7h-0.7L89.7,24z
		 M91.2,59.3l0.7,2.7h-0.8l-0.7-2.7H91.2z M90.6,40.2h0.7L92,43h-0.7L90.6,40.2z M91.3,24H92l0.7,2.7H92L91.3,24z M92.8,59.3
		l0.7,2.7h-0.8l-0.7-2.7H92.8z M92.2,40.2h0.8l0.7,2.7h-0.7L92.2,40.2z M92.9,24h0.8l0.7,2.7h-0.8L92.9,24z M94.5,59.3l0.7,2.7h-0.7
		l-0.7-2.7H94.5z M93.8,40.2h0.8l0.7,2.7h-0.8L93.8,40.2z M94.6,24h0.7l0.7,2.7h-0.7L94.6,24z M96.1,59.3l0.7,2.7h-0.8l-0.7-2.7
		H96.1z M95.4,40.2h0.7l0.7,2.7h-0.7L95.4,40.2z M96.2,24h0.8l0.7,2.7h-0.7L96.2,24z M97.7,59.3l0.7,2.7h-0.8L97,59.3H97.7z
		 M97.1,40.2h0.8l0.4,1.6V43h-0.4L97.1,40.2z M97.8,24h0.8l0.7,2.7h-0.8L97.8,24z M99.4,59.3l0.7,2.7h-0.7l-0.7-2.7H99.4z M99.4,24
		h0.7l0.7,2.7h-0.7L99.4,24z M101,59.3l0.7,2.7h-0.8l-0.7-2.7H101z M101.1,24h0.8l0.7,2.7h-0.7L101.1,24z M102.6,59.3l0.7,2.7h-0.8
		l-0.7-2.7H102.6z M102.7,24h0.8l0.7,2.7h-0.8L102.7,24z M104.3,59.3l0.7,2.7h-0.7l-0.7-2.7H104.3z M104.3,24h0.7l0.7,2.7H105
		L104.3,24z M105.9,59.3l0.7,2.7h-0.8l-0.7-2.7H105.9z M105.9,24h0.8l0.5,2.2v0.5h-0.6L105.9,24z M107.2,61.1l-0.4-1.8h0.4V61.1z"/>
	<path class="st1" d="M116.9,28.7c0-0.8,0.1-1.5,0.2-2.3l2.9,11.6c-0.5-0.6-0.9-1.2-1.2-1.9L116.9,28.7z M117.5,24.6
		c0.1-0.4,0.3-0.9,0.4-1.3l4.4,17.2c-0.3-0.3-0.7-0.6-1-0.9L117.5,24.6z M118.4,22c0.2-0.3,0.3-0.6,0.5-0.9l5.3,20.9
		c-0.3-0.2-0.6-0.4-0.9-0.6L118.4,22z M119.6,20c0.2-0.2,0.3-0.5,0.5-0.8l1.1,4.1c0,0.4-0.1,0.9-0.1,1.3c0,0.6,0,1.2,0.1,1.7
		L119.6,20z M122.1,62l-2.5-9.8v-2.9l3.2,12.7H122.1z M120.5,62l-0.9-3.4v-2.9l1.6,6.3H120.5z M123.7,62l-3.5-13.6h0.7l3.5,13.6
		H123.7z M121.9,19.7c-0.1,0.5-0.3,1-0.4,1.4l-0.7-2.7c0.2-0.2,0.4-0.4,0.6-0.6L121.9,19.7z M122.7,48.4l1.2,4.6v2.9l-1.9-7.5H122.7
		z M122.9,17.2c-0.2,0.3-0.3,0.7-0.5,1.1l-0.3-1.1c0.2-0.2,0.4-0.4,0.6-0.5L122.9,17.2z M122.4,31.2c0.4,0.9,0.9,1.8,1.4,2.7
		l2.3,9.1c-0.3-0.1-0.6-0.3-0.9-0.4L122.4,31.2z M168,42.3c0,4.3-1.5,8-4.6,11c-3.1,3.1-6.7,4.6-11,4.6h-27.2V44.3h27.2
		c0.5,0,1-0.2,1.4-0.6c0.4-0.4,0.6-0.9,0.6-1.4c0-0.6-0.2-1-0.6-1.4c-0.4-0.4-0.9-0.6-1.4-0.6h-14.3c-4.3,0-8-1.5-11-4.6
		c-3.1-3.1-4.6-6.7-4.6-11c0-4.3,1.5-8,4.6-11c3.1-3.1,6.7-4.6,11-4.6h27.1v13.6h-27.1c-0.6,0-1,0.2-1.4,0.6
		c-0.4,0.4-0.6,0.9-0.6,1.5c0,0.5,0.2,1,0.6,1.4c0.4,0.4,0.9,0.6,1.4,0.6h14.3c4.3,0,8,1.5,11,4.6C166.4,34.3,168,38,168,42.3z
		 M123.5,16L123.5,16L123.5,16L123.5,16C123.4,16.1,123.4,16.1,123.5,16z M123.8,49.5l-0.3-1.1h0.3V49.5z M125.4,62l-0.7-2.7h0.8
		l0.7,2.7H125.4z M125.2,35.7c0.3,0.4,0.7,0.7,1,1.1l1.6,6.2h-0.7L125.2,35.7z M127.7,62H127l-0.7-2.7h0.8L127.7,62z M127.4,37.8
		c0.3,0.3,0.6,0.5,0.9,0.7l1.1,4.5h-0.8L127.4,37.8z M128.6,62l-0.7-2.7h0.7l0.7,2.7H128.6z M130.3,43l-1-3.8
		c0.3,0.2,0.6,0.3,0.9,0.5l0.9,3.3H130.3z M131,62h-0.7l-0.7-2.7h0.8L131,62z M131.2,59.3h0.8l0.7,2.7h-0.8L131.2,59.3z M132.7,43
		H132l-0.7-2.8c0.3,0.1,0.5,0.2,0.8,0.3L132.7,43z M132.8,59.3h0.7l0.7,2.7h-0.8L132.8,59.3z M134.3,43h-0.8l-0.5-2.1
		c0.3,0.1,0.5,0.1,0.8,0.2L134.3,43z M134.4,59.3h0.8l0.7,2.7h-0.7L134.4,59.3z M135.9,43h-0.8l-0.4-1.7c0.3,0,0.5,0.1,0.8,0.1
		L135.9,43z M136.8,62l-0.7-2.7h0.8l0.7,2.7H136.8z M137.6,43h-0.7l-0.4-1.4c0.3,0,0.5,0,0.8,0L137.6,43z M137.4,24.7
		c0-0.2,0.1-0.4,0.2-0.5l0.3,1.2C137.6,25.2,137.4,25,137.4,24.7z M138.4,59.3l0.7,2.7h-0.8l-0.7-2.7H138.4z M139.2,43h-0.8
		l-0.3-1.4h0.8L139.2,43z M138.5,24h0.7l0.4,1.3h-0.8L138.5,24z M140.1,59.3l0.7,2.7h-0.7l-0.7-2.7H140.1z M140.8,43h-0.8l-0.3-1.4
		h0.8L140.8,43z M140.2,24h0.7l0.3,1.3h-0.7L140.2,24z M141.7,59.3l0.7,2.7h-0.8l-0.7-2.7H141.7z M142.4,43h-0.7l-0.3-1.4h0.7
		L142.4,43z M141.8,24h0.8l0.3,1.3h-0.8L141.8,24z M143.3,62l-0.7-2.7h0.7L144,62H143.3z M144.1,43h-0.7l-0.4-1.4h0.8L144.1,43z
		 M143.4,24h0.7l0.4,1.3h-0.8L143.4,24z M145.7,62h-0.7l-0.7-2.7h0.8L145.7,62z M145.7,43H145l-0.3-1.4h0.8L145.7,43z M145,24h0.7
		l0.3,1.3h-0.7L145,24z M147.3,62c-0.2,0-0.4,0-0.5,0h-0.2l-0.7-2.7h0.8L147.3,62z M147.3,43h-0.7l-0.3-1.4h0.7L147.3,43z M146.6,24
		h0.8l0.3,1.3H147L146.6,24z M148.9,61.8c-0.2,0-0.5,0-0.7,0.1l-0.7-2.6h0.7L148.9,61.8z M149,43h-0.7l-0.4-1.4h0.8L149,43z
		 M148.3,24h0.7l0.4,1.3h-0.8L148.3,24z M150.4,61.5c-0.2,0.1-0.5,0.1-0.7,0.2l-0.6-2.4h0.8L150.4,61.5z M150.6,43h-0.8l-0.3-1.4
		h0.8L150.6,43z M149.9,24h0.7l0.3,1.3h-0.7L149.9,24z M151.5,59.3l0.4,1.8c-0.2,0.1-0.5,0.2-0.7,0.2l-0.5-2.1H151.5z M152.2,43
		h-0.7l-0.3-1.4h0.7L152.2,43z M151.5,24h0.8l0.3,1.4l-0.8,0L151.5,24z M153.4,60.5c-0.2,0.1-0.4,0.2-0.6,0.3l-0.4-1.5
		c0.2,0,0.5,0,0.7,0L153.4,60.5z M152.8,41.8c0.1,0.1,0.2,0.3,0.2,0.5c0,0,0,0.1,0,0.2L152.8,41.8z M153.2,24h0.8l0.3,1.5
		c-0.3,0-0.5-0.1-0.8-0.1L153.2,24z M154.9,59.7c-0.2,0.1-0.4,0.3-0.6,0.4l-0.2-0.9c0.2,0,0.5,0,0.7-0.1L154.9,59.7z M154.8,24h0.7
		l0.4,1.7c-0.3-0.1-0.5-0.1-0.8-0.1L154.8,24z M155.6,59c0.2,0,0.4-0.1,0.6-0.1c-0.2,0.2-0.4,0.3-0.5,0.4L155.6,59z M156.4,24h0.8
		l0.5,2.2c-0.3-0.1-0.5-0.2-0.8-0.2L156.4,24z M158.1,24h0.8l0.7,2.7H159c0,0-0.1-0.1-0.3-0.1L158.1,24z"/>
	<path class="st1" d="M172.1,14.1l4.2,16.5v2.9L172.1,17V14.1z M172.1,20.5l4.2,16.5v2.9l-4.2-16.5V20.5z M172.1,26.9l4.2,16.5v2.9
		l-4.2-16.5V26.9z M172.1,33.3l4.2,16.5v2.9l-4.2-16.5V33.3z M172.1,39.7l4.2,16.5v2.9l-4.2-16.5V39.7z M172.1,46.1l4,15.9h-0.7
		l-3.3-13V46.1z M172.1,52.5l2.4,9.5h-0.8l-1.7-6.6V52.5z M172.1,58.9l0.8,3.1h-0.8l0-0.2V58.9z M176.3,27.1l-3.6-14h0.7l2.8,11.1
		V27.1z M176.3,20.7l-1.9-7.6h0.8l1.2,4.7V20.7z M176.3,14.3l-0.3-1.2h0.3V14.3z M177.1,59.3l0.7,2.7H177l-0.7-2.7H177.1z M191.2,9
		v48.9h-13.6V9H191.2z M178.7,59.3l0.7,2.7h-0.8l-0.7-2.7H178.7z M180.3,59.3L181,62h-0.7l-0.7-2.7H180.3z M182,59.3l0.7,2.7h-0.8
		l-0.7-2.7H182z M183.6,59.3l0.7,2.7h-0.8l-0.7-2.7H183.6z M185.2,59.3l0.4,1.8V62h-0.5l-0.7-2.7H185.2z"/>
	<path class="st1" d="M200.3,52.4c-0.4-0.5-0.8-1.1-1.2-1.6l-3.8-15.1c0-0.7,0.1-1.3,0.2-2L200.3,52.4z M197.5,47.8
		c-1.3-2.7-2-5.6-2.2-8.6L197.5,47.8z M202.4,54.8c-0.3-0.3-0.5-0.6-0.8-0.9l-5.7-22.2c0.1-0.5,0.2-0.9,0.4-1.4l6.3,24.6
		C202.4,54.8,202.4,54.8,202.4,54.8L202.4,54.8z M204.7,56.8c-0.3-0.2-0.6-0.5-0.9-0.8l-6.9-27.2c0.2-0.4,0.3-0.7,0.5-1.1l2.5,9.9
		c0.3,1.5,0.6,3,1.1,4.4L204.7,56.8z M197.9,26.5c0.2-0.3,0.3-0.6,0.5-1l1.3,5c0,0.5-0.1,1-0.1,1.5l0,0c0,0.2,0,0.4,0,0.6v0.1
		L197.9,26.5z M199,24.6c0.2-0.3,0.4-0.6,0.5-0.8l0.8,3.1c-0.1,0.5-0.2,1-0.3,1.5L199,24.6z M201.2,24c-0.2,0.4-0.3,0.8-0.4,1.2
		l-0.6-2.4c0.2-0.2,0.4-0.4,0.6-0.7L201.2,24z M249.7,28v5.6c0,6.7-2.4,12.4-7.2,17.1c-4.8,4.7-10.5,7.1-17.2,7.1
		c-6.7,0-12.5-2.4-17.3-7.2h0c-0.1-0.1-0.3-0.3-0.4-0.5c0,0,0,0,0,0c-4.1-4.4-6.3-9.5-6.6-15.5c0-0.2,0-0.4,0-0.6v-0.1
		c0-0.2,0-0.4,0-0.6s0-0.4,0-0.6v-0.1c0-0.2,0-0.4,0-0.6c0.3-5.7,2.3-10.6,6.1-14.9c0.2-0.2,0.4-0.4,0.6-0.6
		c0.2-0.2,0.3-0.4,0.5-0.5c4.4-4.4,9.8-6.8,16-7.1h0c0.2,0,0.3,0,0.5,0c0.1,0,0.2,0,0.1,0c0.2,0,0.4,0,0.6,0
		c6.7,0,12.5,2.4,17.3,7.1l-9.6,9.6c-1.4-1.4-3.1-2.4-5.1-2.9c-1.9-0.5-3.8-0.4-5.7,0.2c-0.2,0-0.3,0.1-0.4,0.1l-0.1,0
		c0,0-0.1,0-0.1,0.1c0.1,0,0.1,0,0.1-0.1c-0.1,0-0.2,0.1-0.3,0.1c-0.1,0-0.2,0.1-0.2,0.1c0,0-0.1,0.1-0.2,0.1
		c-0.2,0.1-0.3,0.1-0.3,0.1c0,0,0.1,0,0.1,0c0,0-0.1,0-0.1,0c0,0,0,0-0.1,0c-0.1,0.1-0.3,0.2-0.5,0.3c0.2-0.1,0.3-0.2,0.5-0.3
		c-0.5,0.3-1.1,0.6-1.6,1c0.1-0.1,0.2-0.2,0.3-0.2c-0.1,0.1-0.2,0.2-0.3,0.2c-0.1,0.1-0.2,0.1-0.3,0.2c0.1-0.1,0.2-0.1,0.3-0.2
		c-0.4,0.3-0.7,0.5-1,0.9c-0.1,0.1-0.2,0.2-0.3,0.3c-0.1,0.1-0.2,0.2-0.3,0.3c0.1-0.1,0.2-0.2,0.3-0.3c-1.8,1.8-2.9,4-3.1,6.6
		c0,0.2,0,0.3,0,0.5c0,0.1,0,0.2,0,0.1c0,0.2,0,0.4,0,0.5c0,0.2,0,0.4,0,0.5c0-0.1,0-0.1,0,0.1c0,0.2,0,0.3,0,0.5v0
		c0.3,2.7,1.4,5,3.5,6.9c2.1,1.9,4.5,2.8,7.3,2.8c1.3,0,2.6-0.2,3.8-0.7c-0.2,0.1-0.3,0.1-0.5,0.2c0.2,0,0.3-0.1,0.5-0.2
		c0.8-0.3,1.5-0.7,2.3-1.2c0.2-0.1,0.4-0.3,0.6-0.4c-0.2,0.1-0.4,0.3-0.6,0.4c0.5-0.3,1-0.7,1.4-1.1c0.1,0,0.1-0.1,0.2-0.2
		c0.7-0.7,1.3-1.5,1.8-2.3H228V28H249.7z M202.3,21.8c-0.2,0.3-0.4,0.6-0.5,1l-0.3-1.4c0.2-0.2,0.4-0.4,0.6-0.6L202.3,21.8z
		 M203.4,19.8c-0.2,0.3-0.4,0.6-0.5,0.9l-0.1-0.6c0.2-0.2,0.4-0.4,0.6-0.5L203.4,19.8z M206.7,58.2c-0.3-0.2-0.6-0.4-0.9-0.6
		l-2.8-11.2c0.4,0.6,0.8,1.3,1.2,1.9L206.7,58.2z M204,18.8L204,18.8L204,18.8L204,18.8z M208.6,59.3c-0.3-0.1-0.6-0.3-0.9-0.5
		l-2.3-8.8c0.3,0.4,0.7,0.8,1,1.2L208.6,59.3z M207.5,50.2L207.5,50.2L207.5,50.2L207.5,50.2L207.5,50.2z M210.4,60.2
		c-0.3-0.1-0.6-0.3-0.8-0.4l-1.9-7.4l0.3,0.3l0,0c0.2,0.2,0.4,0.3,0.6,0.5L210.4,60.2z M212.2,60.8c-0.3-0.1-0.5-0.2-0.8-0.3
		l-1.6-6.5c0.3,0.2,0.6,0.4,0.9,0.6L212.2,60.8z M214,61.3c-0.3-0.1-0.5-0.1-0.8-0.2l-1.4-5.7c0.3,0.2,0.6,0.4,0.9,0.5L214,61.3z
		 M215.7,61.6c-0.3,0-0.5-0.1-0.8-0.1l-1.3-5c0.3,0.1,0.6,0.3,0.9,0.4L215.7,61.6z M217.4,61.9c-0.3,0-0.5-0.1-0.8-0.1l-1.1-4.4
		c0.3,0.1,0.5,0.2,0.8,0.3L217.4,61.9z M216.4,27.2c0.1-0.1,0.1-0.2,0.2-0.3C216.5,27,216.5,27.1,216.4,27.2z M219,62
		c-0.2,0-0.5,0-0.8,0l-1-3.9c0.3,0.1,0.5,0.1,0.8,0.2L219,62z M217.6,25.8c0.1-0.1,0.2-0.2,0.3-0.3
		C217.8,25.6,217.7,25.7,217.6,25.8z M219,26.3c0.2-0.2,0.4-0.3,0.6-0.5l0.2,0.8c-0.3,0-0.5,0-0.7,0L219,26.3z M220.6,61.9
		c-0.2,0-0.5,0-0.7,0l-0.9-3.5c0.3,0.1,0.5,0.1,0.8,0.2L220.6,61.9z M220.4,25.3c0.2-0.1,0.4-0.3,0.6-0.4l0.5,1.9
		c-0.3,0-0.5-0.1-0.8-0.1L220.4,25.3z M222.3,61.8c-0.3,0-0.5,0-0.7,0.1l-0.8-3c0.2,0,0.5,0.1,0.8,0.1L222.3,61.8z M222.2,23.1
		c-0.2,0-0.3,0.1-0.4,0.1C221.9,23.2,222,23.1,222.2,23.1z M223.2,27.3c-0.3-0.1-0.5-0.2-0.8-0.2l-0.6-2.4h0c0.1,0,0.2-0.1,0.2-0.1
		h0v0h0.1c0.1,0,0.2-0.1,0.3-0.1L223.2,27.3z M225.3,43c-0.1,0-0.3,0-0.4,0l-2.4-9.6v-1.2h0.4l2.8,10.9C225.4,43,225.3,43,225.3,43z
		 M224,42.9c-0.3,0-0.5-0.1-0.8-0.1l-0.8-3v-2.9L224,42.9z M222.5,59.1c0.3,0,0.5,0,0.8,0.1l0.6,2.5c-0.2,0-0.5,0.1-0.7,0.1
		L222.5,59.1z M223.3,24.2c0.2,0,0.5-0.1,0.7-0.1l1.1,4.1c-0.3-0.2-0.6-0.3-0.9-0.4L223.3,24.2z M227.2,42.8c-0.2,0-0.5,0.1-0.7,0.1
		l-2.8-10.8h0.8L227.2,42.8z M224.1,59.2c0.2,0,0.5,0,0.7,0l0.5,2.1c-0.3,0-0.5,0.1-0.7,0.1L224.1,59.2z M226.6,29.2
		c-0.2-0.1-0.3-0.3-0.5-0.4l-1.2-4.8c0.1,0,0.3,0,0.3,0c0.1,0,0.3,0,0.4,0l1,3.8V29.2z M226.1,32.1l0.5,2.1v2.9l-1.3-5H226.1z
		 M225.7,59.2c0.3,0,0.5,0,0.8,0l0.4,1.6c-0.2,0.1-0.4,0.1-0.7,0.2L225.7,59.2z M227.2,26.7l-0.7-2.6c0.3,0,0.5,0.1,0.8,0.1l0.6,2.5
		H227.2z M227.4,59.2c0.2,0,0.5,0,0.7-0.1l0.3,1.3c-0.2,0.1-0.5,0.2-0.7,0.2L227.4,59.2z M228.7,42.3c-0.3,0.1-0.5,0.2-0.7,0.2
		l-0.6-2.3h0.7L228.7,42.3z M228.3,24.5c0.3,0.1,0.5,0.2,0.8,0.3l0.5,1.9h-0.7L228.3,24.5z M229,59c0.3,0,0.5-0.1,0.7-0.1l0.2,0.9
		c-0.2,0.1-0.4,0.2-0.6,0.3L229,59z M229.8,40.2l0.3,1.4c-0.2,0.1-0.4,0.2-0.6,0.3l-0.4-1.7H229.8z M230.5,43
		c-0.2,0.1-0.4,0.3-0.6,0.3C230.1,43.2,230.3,43.1,230.5,43z M230.1,25.3c0.3,0.2,0.6,0.4,0.9,0.6l0.1,0.2l-0.5,0.5h-0.1L230.1,25.3
		z M231.3,59c-0.2,0.1-0.4,0.2-0.6,0.3l-0.1-0.6c0.2,0,0.4-0.1,0.7-0.2L231.3,59z M231.5,40.6c-0.2,0.2-0.4,0.3-0.6,0.5l-0.2-0.9
		h0.7L231.5,40.6z M232.7,58.2c-0.2,0.1-0.4,0.2-0.6,0.4l-0.1-0.2C232.3,58.3,232.5,58.2,232.7,58.2L232.7,58.2z M232.9,41.2
		c-0.1,0.1-0.2,0.1-0.2,0.2C232.7,41.4,232.8,41.3,232.9,41.2z"/>
	<path class="st1" d="M254.6,13.1l3.5,13.6v2.9l-4.2-16.5H254.6z M253.8,16.6l4.2,16.5V36l-4.2-16.5V16.6z M253.8,23l4.2,16.5v2.9
		l-4.2-16.5V23z M253.8,29.4l4.2,16.5v2.9l-4.2-16.5V29.4z M253.8,35.8l4.2,16.5v2.9l-4.2-16.5V35.8z M253.8,42.2l4.2,16.5v0.5h0.1
		l0.7,2.7h-0.7l-4.3-16.9V42.2z M253.8,48.6l3.4,13.4h-0.8l-2.7-10.5V48.6z M253.8,55l1.8,7h-0.7l-1.1-4.1V55z M253.8,61.4l0.1,0.6
		h-0.1V61.4z M256.2,13.1l1.8,7.2v2.9l-2.6-10.1H256.2z M258,16.8l-0.9-3.7h0.7l0.2,0.8V16.8z M259.8,59.3l0.7,2.7h-0.7l-0.7-2.7
		H259.8z M301.4,9v48.9h-12.2l-0.8-1.1l-1.2-1.7l-4-5.6l-1.2-1.7l0.3,0.4l-2.9-4.1l-1.4-2l-1.2-1.7l-1.4-2l-0.5-0.8l-0.2-0.3
		l0.1,0.1l-0.5-0.7l-1.6-2.3v23.3h-13.6V9h12.2l16.3,23.3V9H301.4z M261.4,59.3l0.7,2.7h-0.8l-0.7-2.7H261.4z M263,59.3l0.7,2.7H263
		l-0.7-2.7H263z M264.7,59.3l0.7,2.7h-0.7l-0.7-2.7H264.7z M266.3,59.3L267,62h-0.8l-0.7-2.7H266.3z M267.4,59.3V60l-0.2-0.8H267.4z
		 M274.3,39.5l3.6,14.3l-1.2-1.6l-2.5-9.7V39.5z M274.3,45.9l1.1,4.2l-1.1-1.5V45.9z M276.6,42.3l3.9,15.2l-1.2-1.6l-3.9-15.2
		L276.6,42.3z M279.2,45.9l3.9,15.2l-1.2-1.6L278,44.3L279.2,45.9z M280.6,47.9l1.2,1.6l3.1,12.4h-0.7L280.6,47.9z M284.6,25.2
		l-2.3-9v-2.9l3.5,13.5L284.6,25.2z M282.3,19.8l0.9,3.5l-0.9-1.2V19.8z M286.5,26.4l-3.4-13.3h0.8l2.6,10.4V26.4z M283.2,51.6
		l1.2,1.6l2.2,8.8h-0.8L283.2,51.6z M286.5,20l-1.7-6.9h0.7l1,4V20z M285.7,55.2l1.2,1.6l1.3,5.1h-0.7L285.7,55.2z M286.5,13.1v0.5
		l-0.1-0.5H286.5z M288.3,58.9l0.2,0.4h0.6l0.7,2.7h-0.7L288.3,58.9z M290.7,59.3l0.7,2.7h-0.8l-0.7-2.7H290.7z M292.4,59.3L293,62
		h-0.7l-0.7-2.7H292.4z M294,59.3l0.7,2.7H294l-0.7-2.7H294z M295.6,59.3l0.2,1.1V62h-0.3l-0.7-2.7H295.6z"/>
	<path class="st1" d="M305.5,14.4l4.2,16.5v2.9l-4.2-16.5V14.4z M305.5,20.9l4.2,16.5v2.9l-4.2-16.5V20.9z M305.5,27.3l4.2,16.5v2.9
		l-4.2-16.5V27.3z M305.5,33.6l4.2,16.5v2.9l-4.2-16.5V33.6z M305.5,40.1l4.2,16.5v2.7h0.7l0.7,2.7h-0.7l-4.9-19V40.1z M305.5,46.5
		l4,15.5h-0.8l-3.2-12.6V46.5z M305.5,52.9l2.3,9.1h-0.8l-1.6-6.2V52.9z M305.5,59.2l0.7,2.7h-0.7V59.2z M306.8,13.1l2.9,11.5v2.9
		l-3.7-14.4H306.8z M308.5,13.1l1.3,5.1v2.9l-2-8H308.5z M309.8,14.7l-0.4-1.6h0.4V14.7z M353.2,9v13.6h-28.5V28h19.5v10.9h-19.5
		v5.4h28.5v13.6h-42.1V9H353.2z M312.1,59.3l0.7,2.7H312l-0.7-2.7H312.1z M313.7,59.3l0.7,2.7h-0.8l-0.7-2.7H313.7z M315.3,59.3
		L316,62h-0.7l-0.7-2.7H315.3z M317,59.3l0.7,2.7h-0.8l-0.7-2.7H317z M318.6,59.3l0.7,2.7h-0.8l-0.7-2.7H318.6z M320.2,59.3l0.7,2.7
		h-0.7l-0.7-2.7H320.2z M321.9,59.3l0.7,2.7h-0.8l-0.7-2.7H321.9z M323.5,59.3l0.7,2.7h-0.8l-0.7-2.7H323.5z M325.1,59.3l0.7,2.7
		h-0.7l-0.7-2.7H325.1z M326.7,59.3l0.7,2.7h-0.8l-0.7-2.7H326.7z M326.1,26.7v-2.1l0.5,2.1H326.1z M326.1,40.2h0.7l0.7,2.7h-0.7
		L326.1,40.2L326.1,40.2z M326.8,24h0.8l0.7,2.7h-0.7L326.8,24z M328.3,59.3l0.7,2.7h-0.8l-0.7-2.7H328.3z M327.7,40.2h0.8l0.7,2.7
		h-0.7L327.7,40.2z M328.4,24h0.8l0.7,2.7h-0.8L328.4,24z M330,59.3l0.7,2.7H330l-0.7-2.7H330z M329.3,40.2h0.8l0.7,2.7H330
		L329.3,40.2z M330.1,24h0.7l0.7,2.7h-0.7L330.1,24z M331.6,59.3l0.7,2.7h-0.8l-0.7-2.7H331.6z M330.9,40.2h0.7l0.7,2.7h-0.7
		L330.9,40.2z M331.7,24h0.8l0.7,2.7h-0.7L331.7,24z M333.2,59.3L334,62h-0.8l-0.7-2.7H333.2z M332.6,40.2h0.8L334,43h-0.7
		L332.6,40.2z M333.3,24h0.8l0.7,2.7H334L333.3,24z M334.9,59.3l0.7,2.7h-0.7l-0.7-2.7H334.9z M334.2,40.2h0.8l0.7,2.7h-0.8
		L334.2,40.2z M334.9,24h0.7l0.7,2.7h-0.7L334.9,24z M336.5,59.3l0.7,2.7h-0.8l-0.7-2.7H336.5z M335.8,40.2h0.7l0.7,2.7h-0.7
		L335.8,40.2z M336.5,24h0.8l0.7,2.7h-0.7L336.5,24z M338.1,59.3l0.7,2.7h-0.8l-0.7-2.7H338.1z M337.4,40.2h0.8l0.4,1.6V43h-0.4
		L337.4,40.2z M338.2,24h0.8l0.7,2.7h-0.8L338.2,24z M339.8,59.3l0.7,2.7h-0.7l-0.7-2.7H339.8z M339.8,24h0.7l0.7,2.7h-0.7L339.8,24
		z M341.4,59.3l0.7,2.7h-0.8l-0.7-2.7H341.4z M341.4,24h0.8l0.7,2.7h-0.7L341.4,24z M343,59.3l0.7,2.7H343l-0.7-2.7H343z M343.1,24
		h0.8l0.7,2.7h-0.8L343.1,24z M344.7,59.3l0.7,2.7h-0.7l-0.7-2.7H344.7z M344.7,24h0.7l0.7,2.7h-0.7L344.7,24z M346.3,59.3L347,62
		h-0.8l-0.7-2.7H346.3z M346.3,24h0.8l0.5,2.2v0.5H347L346.3,24z M347.6,61.1l-0.4-1.8h0.4V61.1z"/>
	<path class="st1" d="M357.8,13.1l3.7,14.7v2.9l-4.2-16.5v-1H357.8z M357.3,17.7l4.2,16.5v2.9l-4.2-16.5V17.7z M357.3,24l4.2,16.5
		v2.9l-4.2-16.5V24z M357.3,30.5l4.2,16.5v2.9l-4.2-16.5V30.5z M357.3,36.9l4.2,16.5v2.9l-4.2-16.5V36.9z M361.3,62l-4-15.8v-2.9
		L362,62H361.3z M359.7,62l-2.4-9.4v-2.9l3.1,12.3H359.7z M357.3,56.1l1.5,5.9h-0.7l-0.8-3V56.1z M359.4,13.1l2.1,8.3v2.9l-2.8-11.2
		H359.4z M361.5,17.9l-1.2-4.8h0.7l0.5,1.9V17.9z M363,62l-0.7-2.7h0.8l0.7,2.7H363z M386.6,9c5.1,0,9.4,1.8,13,5.4
		c3.6,3.6,5.4,7.9,5.4,13c0,3.3-0.8,6.3-2.4,9.1c-1.6,2.7-3.7,4.9-6.4,6.5l8.8,14.9h-15.8l-0.8-1.3l-1.3-2.2l-1.6-2.6l-0.9-1.5
		l0.2,0.4l-2.2-3.7l-0.8-1.3h-5.5v12.2h-13.6V9H386.6z M363.9,59.3h0.8l0.7,2.7h-0.8L363.9,59.3z M365.5,59.3h0.7l0.7,2.7h-0.7
		L365.5,59.3z M367.1,59.3h0.8l0.7,2.7h-0.7L367.1,59.3z M368.8,59.3h0.8l0.7,2.7h-0.8L368.8,59.3z M370.9,61.1l-0.4-1.8h0.4V61.1z
		 M387.5,22.7c-0.3,0-0.6-0.1-0.9-0.1h-10.2v9.5h10.4c0.1,0,0.1,0,0.2,0c1.2-0.1,2.3-0.6,3.1-1.5c0.8-0.9,1.3-2,1.3-3.2
		c0-1.1-0.4-2.2-1.1-3C389.6,23.5,388.6,22.9,387.5,22.7c-0.1,0-0.2,0-0.3,0C387.3,22.7,387.4,22.7,387.5,22.7z M378.4,26.7
		l-0.6-2.4V24h0.6l0.7,2.7H378.4z M377.8,47l2.3,9.1l-1.3-2.2l-1-4V47z M381.7,58.7l-3-11.7h0.8l3.5,13.9L381.7,58.7z M380,26.7
		l-0.7-2.7h0.8l0.7,2.7H380z M381.1,47l3.8,14.9h-0.8L380.3,47H381.1z M382.5,26.9c-0.3-0.1-0.5-0.1-0.8-0.2L381,24h0.7L382.5,26.9z
		 M383.9,51.6l2.6,10.4h-0.7l-3.2-12.5L383.9,51.6z M384.4,28c-0.3-0.3-0.6-0.5-0.9-0.7l-0.9-3.3h0.7L384.4,28z M386,30.7l-1.7-6.8
		h0.8l1.7,6.8H386z M386.7,56.4l1.4,5.5h-0.7l-2-7.7L386.7,56.4z M388.2,30.4c-0.2,0.1-0.4,0.2-0.7,0.2l-1.7-6.6h0.7L388.2,30.4z
		 M386.8,32.1c0.1,0,0.1,0,0.2,0C387,32.1,386.9,32.1,386.8,32.1z M389.5,29.1c-0.1,0.3-0.3,0.5-0.5,0.7l-1.4-5.7
		c0.3,0.1,0.5,0.2,0.8,0.4L389.5,29.1z M389,62l-0.7-2.9l0.1,0.2h0.7l0.7,2.7H389z M390,27.5l-0.4-1.8c0.3,0.5,0.4,1.1,0.4,1.7V27.5
		z M391.4,62h-0.7l-0.7-2.7h0.7L391.4,62z M391,29.1c-0.1,0.3-0.3,0.5-0.4,0.8C390.8,29.7,390.9,29.4,391,29.1z M391.1,28.9
		c0,0.1,0,0.1-0.1,0.2C391.1,29,391.1,29,391.1,28.9z M393,62h-0.7l-0.7-2.7h0.8L393,62z M394.7,62h-0.8l-0.7-2.7h0.8L394.7,62z
		 M396.3,62h-0.7l-0.7-2.7h0.7L396.3,62z M397.9,62h-0.7l-0.7-2.7h0.8L397.9,62z M399.4,62h-0.6l-0.4-1.7L399.4,62z"/>
	<path class="st1" d="M409.2,25.1l0.2,0.6l-0.3-0.5L409.2,25.1z M409.8,21l0.5,2l-0.9-0.5l-0.2-0.6L409.8,21z M410,24.6l0.6-0.3
		l1,4.1l-0.6,0.4l0-0.1L410,24.6z M411.4,23.8l0.2-0.1l-0.2-0.1l-0.9-3.7l0.5-0.9l2.2,8.6l-0.6,0.4L411.4,23.8z M411.8,19.2l0.9,0.5
		l0.2,0.8l-0.1,0.1l0.3,0.5l2.3,9.2h-0.7L411.8,19.2z M414.3,19.7l-0.4,0.2l-0.2,0.1v-0.7l0.2,0.1L414.3,19.7L414.3,19.7z
		 M413.7,30.1l0.1,0.2h-0.1V30.1z M423.4,13.1v3.1l2.7-1.5l2,3.6l-2.5,1.4l2.5,1.4l-2,3.6l-2.7-1.5v3.1h-4.1v-3.1l-0.7,0.4l-0.6,0.3
		l-1.3,0.8l-0.2-0.3l-1.8-3.2l2.5-1.4l-1.4-0.8l-0.9-0.5l-0.3-0.1l2-3.6l2.7,1.5v-3.1H423.4z M414.7,24l0.7,1.3l0.6,1.2l1,3.8h-0.8
		L414.7,24z M417.8,29.8l-1-3.7l0.4-0.2l0.2-0.1l0.4,1.6l-0.1,0V29.8z M419.8,28.3l-0.9-0.5l-0.1-0.2h0.8L419.8,28.3z M421.1,27.6
		l-0.4,0.8l-0.2-0.8H421.1z"/>
</g>
</svg>
