<?xml version="1.0" encoding="utf-8"?>
<!-- Generator: Adobe Illustrator 24.3.0, SVG Export Plug-In . SVG Version: 6.00 Build 0)  -->
<svg version="1.1" id="Layer_1" xmlns="http://www.w3.org/2000/svg" xmlns:xlink="http://www.w3.org/1999/xlink" x="0px" y="0px"
	 viewBox="0 0 514 95" style="enable-background:new 0 0 514 95;" xml:space="preserve">
<style type="text/css">
	.st0{enable-background:new    ;}
	.st1{fill:#383838;}
</style>
<g class="st0">
	<path class="st1" d="M31.3,66.7c0.6,0.9,1,1.8,1,2.7c0,0.9-0.3,1.7-1,2.3c-0.6,0.6-1.5,0.9-2.5,0.9c-0.6,0-1.4-0.2-2.2-0.5
		c-1.5-1.1-3.1-2.3-5-3.6c-1.8-1.4-3.7-2.7-5.6-4.2c-1.9-1.4-3.7-2.8-5.6-4.2c-1.8-1.4-3.5-2.6-5-3.7c-0.9-0.9-1.4-1.9-1.4-2.9
		c0-1.2,0.6-2.2,1.7-3.1c0.3-0.2,1-0.8,2-1.6c1-0.8,2.3-1.8,3.8-2.9c1.5-1.1,3-2.3,4.6-3.6c1.6-1.3,3.2-2.5,4.6-3.6
		c1.5-1.1,2.7-2.1,3.8-3c1.1-0.9,1.7-1.4,1.9-1.5c0.8-0.3,1.4-0.4,1.9-0.4c1,0,1.8,0.3,2.5,1c0.6,0.6,1,1.4,1,2.4c0,1-0.4,2-1.1,2.9
		c-1,0.8-2.3,1.8-3.8,3c-1.5,1.2-3.1,2.4-4.8,3.7c-1.7,1.3-3.2,2.5-4.8,3.7c-1.5,1.2-2.8,2.2-3.8,3c1.2,0.9,2.5,1.9,4.1,3
		c1.6,1.1,3.1,2.3,4.7,3.5c1.6,1.2,3.2,2.4,4.7,3.5C28.8,64.8,30.1,65.8,31.3,66.7z"/>
</g>
<g class="st0">
	<path class="st1" d="M56,31.1c5.3,0,9.2,2.1,11.8,6.2v-8.1c0-2.1-0.1-3.4-0.2-3.9c-0.3-1.7-1-2.5-2.2-2.5c-0.4,0-1,0.1-1.8,0.2
		c-0.8,0.2-1.4,0.2-1.8,0.2c-2,0-3-0.9-3-2.6c0-1.8,1.3-2.6,4-2.6c0.4,0,1.2,0.1,2.3,0.2c1.7,0.2,2.6,0.2,2.6,0.2
		c0.5,0,1.2-0.1,2.1-0.2c0.9-0.1,1.6-0.2,2.1-0.2c1.5,0,2.2,1.1,2.2,3.2v0.9c-0.1,0.2-0.1,1.6-0.2,4.2c0,0.3-0.1,2.4-0.2,6.2
		c-0.1,2.7-0.2,4.7-0.2,6.1v7.9v13.4c0.1,3.5,0.2,5.7,0.5,6.6c0.3,0.9,0.9,1.3,2,1.3c0.7,0,1.2-0.1,1.6-0.2c0.9-0.1,1.5-0.2,1.8-0.2
		c2,0,3,0.9,3,2.6c0,1.8-1.2,2.7-3.6,2.7c-0.5,0-1.3-0.1-2.4-0.2c-1.1-0.1-1.9-0.2-2.4-0.2c-0.2,0-0.8,0.1-1.8,0.2
		c-0.6,0.2-1.2,0.2-1.7,0.2c-1.4,0-2.2-1-2.2-2.9v-0.4v-1.4c-2.8,3.8-6.9,5.7-12.3,5.7c-5.4,0-9.8-2-13.1-5.9
		c-3.3-3.9-4.9-9.1-4.9-15.5c0-6.5,1.6-11.6,4.9-15.5C46.2,33,50.5,31.1,56,31.1z M67.5,59.3c0.2-1.8,0.3-4,0.3-6.8
		c0-3.6-0.1-6-0.4-7.3c-0.5-2.7-1.6-4.7-3.5-6.2c-2.1-1.8-4.6-2.6-7.4-2.6c-3.8,0-6.7,1.4-8.8,4.2c-2.1,2.8-3.2,6.7-3.2,11.6
		c0,5.1,1.1,9.1,3.3,12c2.2,2.9,5.2,4.4,9,4.4c2.9,0,5.3-0.8,7.2-2.5C66,64.3,67.2,62.1,67.5,59.3z"/>
	<path class="st1" d="M122.4,48.9c0,2-0.1,3.3-0.4,3.7c-0.3,0.5-1,0.7-2.3,0.7H94.2c-0.7,0-1.1,0.1-1.4,0.3
		c-0.2,0.2-0.3,0.5-0.3,0.9c0,4,1.2,7.3,3.6,10c2.4,2.7,5.4,4,9,4c2.3,0,4.5-0.6,6.4-1.9c1.9-1.3,3.2-2.9,3.8-4.9l0.7-2.3
		c0.4-1.3,1.3-1.9,2.6-1.9c2,0,3,1,3,3c0,3.5-1.8,6.5-5.3,9.2s-7.5,4-12,4c-5.6,0-10.1-1.9-13.4-5.6c-3.3-3.8-5-8.8-5-15.2
		c0-6.5,1.8-11.8,5.3-15.8c3.5-4.1,8.1-6.1,13.8-6.1c5,0,9.1,1.7,12.4,5C120.7,39.5,122.4,43.7,122.4,48.9z M93.3,46.8
		c0,0.7,0.6,1.1,1.8,1.1h19.1c1.1,0,1.7-0.4,1.7-1.1c0-2.8-1.1-5.3-3.2-7.4c-2.1-2.1-4.6-3.1-7.5-3.1c-3,0-5.7,1.1-8.2,3.2
		C94.6,41.8,93.3,44.2,93.3,46.8z"/>
	<path class="st1" d="M140.2,41.8l9.4,25.1l9-25c0.5-1.5,0.8-2.5,0.8-2.9c0-1.2-0.6-1.8-1.7-1.8c-0.4,0-1.1,0.1-1.9,0.2
		c-0.8,0.2-1.5,0.2-1.9,0.2c-1.8,0-2.6-0.9-2.6-2.6c0-1.8,1.3-2.8,3.8-2.8c0.1,0,0.3,0,0.6,0c0.3,0,0.5,0.1,0.6,0.1l3.4,0.3
		c0.7,0.2,1.5,0.3,2.3,0.3c1.1,0,2.8-0.1,5.3-0.5c1.5-0.2,2.6-0.3,3.2-0.3c2.3,0,3.4,0.9,3.4,2.7c0,1.8-0.9,2.7-2.8,2.7
		c-0.6,0-1-0.1-1.3-0.2c-0.8-0.2-1.4-0.3-1.7-0.3c-1,0-1.9,1.3-3,3.8L154,70c-1,2.5-2.6,3.7-4.9,3.7c-2.2,0-3.8-1.2-4.7-3.7
		l-11.5-29.7c-0.7-2-1.6-3-2.6-3c-0.4,0-0.9,0.1-1.7,0.2c-0.7,0.2-1.3,0.2-1.7,0.2c-1.8,0-2.6-0.8-2.6-2.5c0-1.9,1.2-2.9,3.7-2.9
		c0.4,0,0.7,0,1,0.1l3.4,0.4c1.1,0.1,2.2,0.2,3.4,0.2c0.9,0,2.2-0.1,4-0.3l2.6-0.3c0.3-0.1,0.6-0.1,1.1-0.1c2.3,0,3.5,0.9,3.5,2.8
		c0,1.7-1,2.6-3,2.6c-0.6,0-1.1,0-1.4-0.1c-1-0.3-1.7-0.4-1.9-0.4c-0.9,0-1.3,0.4-1.3,1.1c0,0.4,0.1,0.9,0.3,1.6L140.2,41.8z"/>
	<path class="st1" d="M211.6,48.9c0,2-0.1,3.3-0.4,3.7c-0.3,0.5-1,0.7-2.3,0.7h-25.4c-0.7,0-1.1,0.1-1.4,0.3
		c-0.2,0.2-0.3,0.5-0.3,0.9c0,4,1.2,7.3,3.6,10c2.4,2.7,5.4,4,9,4c2.3,0,4.5-0.6,6.4-1.9c1.9-1.3,3.2-2.9,3.8-4.9l0.7-2.3
		c0.4-1.3,1.3-1.9,2.6-1.9c2,0,3,1,3,3c0,3.5-1.8,6.5-5.3,9.2s-7.5,4-12,4c-5.6,0-10.1-1.9-13.4-5.6c-3.3-3.8-5-8.8-5-15.2
		c0-6.5,1.8-11.8,5.3-15.8c3.5-4.1,8.1-6.1,13.8-6.1c5,0,9.1,1.7,12.4,5C209.9,39.5,211.6,43.7,211.6,48.9z M182.5,46.8
		c0,0.7,0.6,1.1,1.8,1.1h19.1c1.1,0,1.7-0.4,1.7-1.1c0-2.8-1.1-5.3-3.2-7.4c-2.1-2.1-4.6-3.1-7.5-3.1c-3,0-5.7,1.1-8.2,3.2
		C183.8,41.8,182.5,44.2,182.5,46.8z"/>
	<path class="st1" d="M230,39v24.8c0.1,2.7,0.8,4.1,2.2,4.1c0.3,0,1-0.1,2-0.4c0.6-0.1,1.1-0.2,1.3-0.2c1.8,0,2.7,0.9,2.7,2.7
		c0,1.8-1.1,2.6-3.3,2.6c-0.9,0-2.2-0.1-4.1-0.3c-1.9-0.2-3.3-0.3-4.3-0.3c-0.9,0-2.1,0.1-3.8,0.3c-1.7,0.2-2.9,0.3-3.7,0.3h-0.4
		c-2.2,0-3.3-1-3.3-2.9c0-1.7,0.9-2.5,2.7-2.5c0.1,0,0.3,0,0.6,0c0.3,0.1,0.6,0.1,0.7,0.1c1.3,0.3,2.1,0.4,2.3,0.4
		c1,0,1.6-0.4,1.8-1.2c0.2-0.8,0.4-3,0.4-6.5l0.1-5.6V42.2V27.9c-0.1-1.6-0.1-2.7-0.2-3.2c-0.4-1.2-1.1-1.8-2.2-1.8
		c-0.2,0-0.9,0.1-2.1,0.3c-0.6,0.1-1.1,0.2-1.4,0.2c-1.8,0-2.7-0.9-2.7-2.6c0-1.8,1.1-2.6,3.2-2.6c0.6,0,1.1,0,1.5,0.1l1.9,0.2
		c0.9,0.1,1.6,0.2,2.2,0.2c0.5,0,1.3-0.1,2.4-0.2c1.1-0.2,1.9-0.2,2.4-0.2c1.2,0,1.8,0.8,1.8,2.3c0,0.5,0,0.9-0.1,1.2
		C230.2,25.7,230,31.5,230,39z"/>
	<path class="st1" d="M260.6,73.8c-5.6,0-10.1-1.9-13.4-5.8c-3.4-3.9-5-9.1-5-15.6c0-6.5,1.7-11.7,5.1-15.6
		c3.4-3.9,7.9-5.8,13.6-5.8c5.8,0,10.4,1.9,13.8,5.7c3.4,3.8,5,8.9,5,15.4c0,6.5-1.7,11.7-5.2,15.7C271,71.8,266.4,73.8,260.6,73.8z
		 M261,36.4c-3.7,0-6.7,1.3-8.8,3.9c-2.1,2.6-3.3,6.3-3.5,11.1v1c0,5,1.1,8.9,3.2,11.8c2.1,2.9,5.1,4.3,8.8,4.3
		c3.9,0,6.9-1.4,9.2-4.3c2.2-2.9,3.3-6.8,3.3-11.9C273.2,41.7,269.1,36.4,261,36.4z"/>
	<path class="st1" d="M298.1,34.8v2.6c3-4.2,7.1-6.2,12.2-6.2c5.3,0,9.6,1.8,12.7,5.5c3.1,3.7,4.7,8.7,4.7,15c0,6.8-1.7,12.2-5,16.2
		c-3.3,4-7.8,6-13.4,6c-4.6,0-8.4-1.6-11.3-4.9v6.6c0,2,0.1,3.3,0.2,3.9c0.3,1.7,1.1,2.5,2.3,2.5c0.4,0,0.9-0.1,1.7-0.2
		c0.7-0.2,1.3-0.2,1.7-0.2c1.7,0,2.6,0.9,2.6,2.6c0,1.8-1.1,2.6-3.3,2.6c-0.8,0-2-0.1-3.6-0.3c-1.2-0.2-2.9-0.2-5.3-0.2
		c-1.3,0-2.3,0.1-3.2,0.2c-2.1,0.3-3.5,0.4-4.2,0.4c-0.9,0-1.7-0.3-2.3-0.8c-0.6-0.6-1-1.2-1-1.9c0-1.7,0.9-2.5,2.7-2.5
		c0.3,0,0.8,0.1,1.5,0.2c0.9,0.2,1.6,0.3,2,0.3c1,0,1.6-0.5,1.9-1.6s0.4-3.9,0.4-8.7V40.8c-0.1-2.5-0.7-3.7-2.1-3.7
		c-0.4,0-0.9,0.1-1.7,0.3c-0.8,0.2-1.4,0.3-1.8,0.3c-2,0-2.9-0.9-2.9-2.6c0-1.7,1.2-2.6,3.5-2.6c0.6,0,1.2,0,1.9,0.1
		c1.3,0.1,2.3,0.2,3,0.2c0.5,0,1.2,0,2.1-0.1c0.9-0.1,1.6-0.1,2-0.1C297.5,32.5,298.1,33.3,298.1,34.8z M299.3,44.5
		c-0.5,2.1-0.7,4.6-0.8,7.6c0,0.2,0,0.6-0.1,1.2c0,0.5,0,0.9,0,1.1c0,3.6,0.3,6.2,0.9,7.8c0.6,1.6,1.7,3.1,3.5,4.4
		c1.7,1.3,3.9,1.9,6.4,1.9c3.8,0,6.8-1.4,8.9-4.2c2.1-2.8,3.2-6.8,3.2-12c0-10.7-3.8-16-11.4-16c-2.6,0-4.8,0.8-6.8,2.3
		S299.9,42.2,299.3,44.5z"/>
	<path class="st1" d="M370.2,48.9c0,2-0.1,3.3-0.4,3.7c-0.3,0.5-1,0.7-2.3,0.7H342c-0.7,0-1.1,0.1-1.4,0.3c-0.2,0.2-0.3,0.5-0.3,0.9
		c0,4,1.2,7.3,3.6,10c2.4,2.7,5.4,4,9,4c2.3,0,4.5-0.6,6.4-1.9c1.9-1.3,3.2-2.9,3.8-4.9l0.7-2.3c0.4-1.3,1.3-1.9,2.6-1.9
		c2,0,3,1,3,3c0,3.5-1.8,6.5-5.3,9.2c-3.5,2.7-7.5,4-12,4c-5.6,0-10.1-1.9-13.4-5.6c-3.3-3.8-5-8.8-5-15.2c0-6.5,1.8-11.8,5.3-15.8
		c3.5-4.1,8.1-6.1,13.8-6.1c5,0,9.1,1.7,12.4,5C368.6,39.5,370.2,43.7,370.2,48.9z M341.2,46.8c0,0.7,0.6,1.1,1.8,1.1H362
		c1.1,0,1.7-0.4,1.7-1.1c0-2.8-1.1-5.3-3.2-7.4c-2.1-2.1-4.6-3.1-7.5-3.1c-3,0-5.7,1.1-8.2,3.2C342.4,41.8,341.2,44.2,341.2,46.8z"
		/>
	<path class="st1" d="M388.2,34.7v2.2c2.8-3.9,6.5-5.8,11.1-5.8c3.7,0,6.8,1.1,9.1,3.2c2.3,2.1,3.5,4.8,3.5,8.1
		c0,2.3-0.6,4.3-1.8,5.7c-1.2,1.5-2.7,2.2-4.6,2.2c-1.2,0-2.3-0.4-3.1-1.1c-0.9-0.7-1.3-1.7-1.3-2.7c0-0.9,0.3-1.6,1-2.3
		c0.6-0.7,1.4-1,2.2-1c0.2,0,0.5,0.1,1,0.2c0.3-0.6,0.5-1.2,0.5-1.8c0-1.5-0.7-2.9-2-3.9c-1.4-1.1-3.1-1.6-5.1-1.6
		c-4.2,0-6.9,1.9-8.3,5.6c-0.9,2.3-1.3,5.8-1.3,10.4v5.3c0,3.6,0,5.6,0.1,6c0.3,3,1.1,4.6,2.5,4.6c0.7,0,1.4-0.1,2.2-0.3
		c0.6-0.1,1.1-0.2,1.5-0.2c1.7,0,2.6,0.8,2.6,2.5c0,1.8-1.1,2.8-3.3,2.8h-0.3c-0.8,0-2-0.1-3.6-0.3s-2.8-0.3-3.6-0.3
		c-2.1,0-3.8,0.1-5,0.2l-4.5,0.4c-2.2,0-3.3-0.9-3.3-2.8c0-1.7,1-2.5,3.1-2.5c0.5,0,0.9,0,1.2,0.1l1.2,0.2c0.5,0.1,0.9,0.2,1.1,0.2
		c1.3,0,2.1-1.2,2.2-3.7v-4.1L382.8,42c-0.2-3.1-1-4.7-2.4-4.7c-0.4,0-1,0.1-1.8,0.2c-0.7,0.2-1.3,0.2-1.8,0.2
		c-1.8,0-2.6-0.9-2.6-2.6c0-1.9,1.1-2.8,3.4-2.8c0.5,0,1.3,0.1,2.4,0.2c1.1,0.1,1.9,0.2,2.4,0.2c0.4,0,1.1-0.1,2.1-0.2
		c0.4-0.1,0.9-0.2,1.5-0.2C387.5,32.4,388.2,33.2,388.2,34.7z"/>
</g>
<g class="st0">
	<path class="st1" d="M464.2,12.1c0.9-1.5,2.1-2.3,3.4-2.3c0.9,0,1.7,0.3,2.4,1c0.7,0.6,1.1,1.5,1.1,2.6c0,0.5-0.1,1.2-0.4,1.9
		c-4.4,10.3-8.9,20.6-13.3,30.8c-4.5,10.2-8.9,20.5-13.4,30.8c-0.5,0.6-1,1.1-1.6,1.4s-1.1,0.4-1.7,0.4c-0.9,0-1.7-0.3-2.3-1
		c-0.6-0.6-1-1.6-1-2.7c0-0.2,0-0.4,0-0.6c0-0.2,0-0.4,0.1-0.7c4.4-10.3,8.9-20.6,13.3-30.8C455.3,32.7,459.7,22.5,464.2,12.1z"/>
	<path class="st1" d="M480.9,66.7c1.2-0.9,2.5-1.9,4.1-3c1.6-1.1,3.1-2.3,4.7-3.5c1.6-1.2,3.2-2.4,4.7-3.5c1.6-1.1,2.9-2.2,4.1-3
		c-1-0.8-2.3-1.8-3.8-3c-1.5-1.2-3.1-2.4-4.8-3.7c-1.7-1.3-3.2-2.5-4.8-3.7c-1.5-1.2-2.8-2.2-3.8-3c-0.8-0.9-1.1-1.9-1.1-2.9
		c0-0.9,0.3-1.7,1-2.4c0.6-0.6,1.5-1,2.5-1c0.5,0,1.2,0.1,1.9,0.4c0.3,0.2,1,0.7,2,1.5c1,0.9,2.3,1.8,3.8,3c1.5,1.1,3,2.3,4.6,3.6
		c1.6,1.3,3.2,2.5,4.6,3.6c1.5,1.1,2.7,2.1,3.8,2.9c1,0.8,1.7,1.4,2,1.6c1.1,0.9,1.7,1.9,1.7,3.1c0,1-0.5,2-1.4,2.9
		c-1.5,1.1-3.1,2.3-5,3.7c-1.9,1.4-3.7,2.8-5.6,4.2c-1.9,1.4-3.7,2.8-5.6,4.2c-1.8,1.4-3.5,2.6-5,3.6c-0.8,0.4-1.5,0.5-2.2,0.5
		c-1,0-1.8-0.3-2.5-0.9s-1-1.4-1-2.3C479.9,68.5,480.3,67.6,480.9,66.7z"/>
</g>
</svg>
